<svg viewBox="0 0 106 26" fill="none" xmlns="http://www.w3.org/2000/svg">
<path d="M6.13735 4.19452L1.23866 9.45846C0.477341 10.2765 0.233844 11.45 0.606805 12.5034L3.44924 20.5321C4.02117 22.1475 5.8278 22.9565 7.41376 22.3072L16.1365 18.7365C17.2637 18.2751 18 17.178 18 15.9601V9.82006C18 8.71543 17.393 7.70016 16.4199 7.17735L9.75337 3.59556C8.552 2.95009 7.06643 3.19616 6.13735 4.19452Z" fill="#525269"/>
<path d="M34.9889 17.3896V19H27.5514V7.02197H29.4108V17.3896H34.9889ZM40.073 19.166C37.5745 19.166 35.9309 17.4478 35.9309 14.6338C35.9309 11.8281 37.5828 10.1099 40.073 10.1099C42.5632 10.1099 44.2151 11.8281 44.2151 14.6338C44.2151 17.4478 42.5715 19.166 40.073 19.166ZM40.073 17.6885C41.4841 17.6885 42.3889 16.5762 42.3889 14.6338C42.3889 12.6997 41.4758 11.5874 40.073 11.5874C38.6702 11.5874 37.7571 12.6997 37.7571 14.6338C37.7571 16.5762 38.6702 17.6885 40.073 17.6885ZM49.0501 19.1494C46.8421 19.1494 45.3812 17.3896 45.3812 14.6338C45.3812 11.8779 46.8421 10.1265 49.0335 10.1265C50.287 10.1265 51.283 10.7573 51.7728 11.7202H51.806V7.02197H53.6073V19H51.8641V17.5142H51.8309C51.3162 18.5103 50.3202 19.1494 49.0501 19.1494ZM49.5233 11.6372C48.1038 11.6372 47.2157 12.7993 47.2157 14.6338C47.2157 16.4766 48.1038 17.6304 49.5233 17.6304C50.9012 17.6304 51.8226 16.46 51.8226 14.6338C51.8226 12.8242 50.9012 11.6372 49.5233 11.6372ZM59.2724 11.5542C58.019 11.5542 57.1391 12.5088 57.0478 13.8286H61.414C61.3725 12.4922 60.5258 11.5542 59.2724 11.5542ZM61.4057 16.4351H63.1073C62.8583 18.0288 61.3476 19.166 59.3471 19.166C56.7821 19.166 55.2299 17.4312 55.2299 14.6753C55.2299 11.936 56.8071 10.1099 59.2724 10.1099C61.6962 10.1099 63.207 11.8198 63.207 14.4678V15.082H57.0395V15.1899C57.0395 16.709 57.9526 17.7134 59.3886 17.7134C60.4096 17.7134 61.165 17.1987 61.4057 16.4351ZM64.6138 12.7412C64.6138 11.1807 65.9751 10.1099 67.9839 10.1099C70.0176 10.1099 71.3374 11.2388 71.3955 12.8491H69.7104C69.6108 12.0024 68.9883 11.4712 67.9839 11.4712C67.0127 11.4712 66.3652 11.9443 66.3652 12.6416C66.3652 13.1895 66.7637 13.563 67.71 13.7788L69.1294 14.1025C70.9141 14.5176 71.5947 15.2148 71.5947 16.4766C71.5947 18.0703 70.1089 19.166 68.0503 19.166C65.8672 19.166 64.5557 18.0952 64.3896 16.4351H66.166C66.332 17.3481 66.9546 17.7964 68.0503 17.7964C69.1294 17.7964 69.7935 17.3481 69.7935 16.6343C69.7935 16.0698 69.4697 15.7378 68.5151 15.522L67.0957 15.1899C65.4355 14.8081 64.6138 14.0112 64.6138 12.7412ZM73.6822 8.20068H75.4835V10.2676H77.1436V11.687H75.4835V16.5015C75.4835 17.2568 75.8155 17.5972 76.546 17.5972C76.7286 17.5972 77.0191 17.5806 77.1353 17.5557V18.9751C76.9361 19.0249 76.5377 19.0581 76.1392 19.0581C74.3712 19.0581 73.6822 18.3857 73.6822 16.7007V11.687H72.4122V10.2676H73.6822V8.20068ZM82.3273 19.166C79.8288 19.166 78.1852 17.4478 78.1852 14.6338C78.1852 11.8281 79.8371 10.1099 82.3273 10.1099C84.8175 10.1099 86.4694 11.8281 86.4694 14.6338C86.4694 17.4478 84.8258 19.166 82.3273 19.166ZM82.3273 17.6885C83.7384 17.6885 84.6432 16.5762 84.6432 14.6338C84.6432 12.6997 83.7301 11.5874 82.3273 11.5874C80.9245 11.5874 80.0114 12.6997 80.0114 14.6338C80.0114 16.5762 80.9245 17.6885 82.3273 17.6885ZM88.0256 19V10.2676H89.7356V11.7285H89.7771C90.2502 10.7324 91.1799 10.1182 92.5246 10.1182C94.4504 10.1182 95.5544 11.3467 95.5544 13.3472V19H93.7532V13.6958C93.7532 12.3843 93.1389 11.6621 91.8938 11.6621C90.6321 11.6621 89.8186 12.5586 89.8186 13.9116V19H88.0256ZM101.112 11.5542C99.8582 11.5542 98.9783 12.5088 98.887 13.8286H103.253C103.212 12.4922 102.365 11.5542 101.112 11.5542ZM103.245 16.4351H104.947C104.698 18.0288 103.187 19.166 101.186 19.166C98.6214 19.166 97.0692 17.4312 97.0692 14.6753C97.0692 11.936 98.6463 10.1099 101.112 10.1099C103.535 10.1099 105.046 11.8198 105.046 14.4678V15.082H98.8787V15.1899C98.8787 16.709 99.7918 17.7134 101.228 17.7134C102.249 17.7134 103.004 17.1987 103.245 16.4351Z" fill="#525269"/>
</svg>
